<svg xmlns="http://www.w3.org/2000/svg" width="16" height="16" viewBox="0 0 16 16"><rect width="16" height="16" fill="rgb(234, 237, 239)"/><g fill-opacity="0.7"><circle fill="#b3c1d9" cx="15" cy="5" r="2"/><circle fill="#a5b7da" cx="7" cy="3" r="2"/><circle fill="#364a2b" cx="17" cy="11" r="2"/><circle fill="#7db4ef" cx="7" cy="7" r="2"/><circle fill="#93a9c4" cx="5" cy="9" r="2"/><circle fill="#6e97d0" cx="7" cy="5" r="2"/><circle fill="#a7b8da" cx="5" cy="1" r="2"/><circle fill="#46562f" cx="9" cy="11" r="2"/><circle fill="#a1afca" cx="13" cy="3" r="2"/><circle fill="#80a2bb" cx="7" cy="9" r="2"/><circle fill="#7599ae" cx="15" cy="9" r="2"/><circle fill="#82baee" cx="3" cy="7" r="2"/><circle fill="#99afd2" cx="1" cy="1" r="2"/><circle fill="#34472d" cx="17" cy="13" r="2"/><circle fill="#6c899f" cx="17" cy="9" r="2"/><circle fill="#564d4c" cx="1" cy="11" r="2"/><circle fill="#adbee0" cx="9" cy="1" r="2"/><circle fill="#82a3d2" cx="9" cy="5" r="2"/><circle fill="#afbedb" cx="11" cy="1" r="2"/><circle fill="#c3d2e7" cx="13" cy="5" r="2"/><circle fill="#21381d" cx="17" cy="15" r="2"/><circle fill="#468cd9" cx="1" cy="5" r="2"/><circle fill="#725d52" cx="1" cy="17" r="2"/><circle fill="#1c3417" cx="11" cy="15" r="2"/><circle fill="#9ab8cd" cx="1" cy="9" r="2"/><circle fill="#93a8d3" cx="7" cy="1" r="2"/><circle fill="#756d68" cx="7" cy="15" r="2"/><circle fill="#b5c4d4" cx="15" cy="7" r="2"/><circle fill="#8cbfef" cx="1" cy="7" r="2"/><circle fill="#4d8fdc" cx="3" cy="5" r="2"/><circle fill="#b8c5d8" cx="17" cy="7" r="2"/><circle fill="#c3d0eb" cx="11" cy="3" r="2"/><circle fill="#30462b" cx="13" cy="13" r="2"/><circle fill="#8393af" cx="17" cy="3" r="2"/><circle fill="#8dc2ea" cx="11" cy="7" r="2"/><circle fill="#a6bce1" cx="3" cy="3" r="2"/><circle fill="#bdcce9" cx="9" cy="3" r="2"/><circle fill="#866d63" cx="1" cy="15" r="2"/><circle fill="#2e4326" cx="15" cy="13" r="2"/><circle fill="#0a1a0a" cx="7" cy="13" r="2"/><circle fill="#10200d" cx="9" cy="15" r="2"/><circle fill="#8cc0f0" cx="9" cy="7" r="2"/><circle fill="#93acd7" cx="1" cy="3" r="2"/><circle fill="#615851" cx="5" cy="13" r="2"/><circle fill="#7a99ae" cx="13" cy="9" r="2"/><circle fill="#686042" cx="3" cy="11" r="2"/><circle fill="#c9ddec" cx="13" cy="7" r="2"/><circle fill="#a5b5d4" cx="15" cy="1" r="2"/><circle fill="#7486a6" cx="17" cy="1" r="2"/><circle fill="#1f331a" cx="11" cy="13" r="2"/><circle fill="#b3c5e3" cx="11" cy="5" r="2"/><circle fill="#737177" cx="9" cy="17" r="2"/><circle fill="#a18879" cx="5" cy="17" r="2"/><circle fill="#4e603f" cx="11" cy="11" r="2"/><circle fill="#987e73" cx="3" cy="17" r="2"/><circle fill="#334226" cx="13" cy="11" r="2"/><circle fill="#2e3e2c" cx="15" cy="17" r="2"/><circle fill="#ad9688" cx="1" cy="13" r="2"/><circle fill="#82675e" cx="7" cy="17" r="2"/><circle fill="#484756" cx="5" cy="15" r="2"/><circle fill="#869ecb" cx="3" cy="1" r="2"/><circle fill="#ccd7ee" cx="13" cy="1" r="2"/><circle fill="#7bb6ef" cx="5" cy="7" r="2"/><circle fill="#132112" cx="15" cy="15" r="2"/><circle fill="#1b3019" cx="17" cy="17" r="2"/><circle fill="#2e482b" cx="13" cy="15" r="2"/><circle fill="#314f31" cx="9" cy="13" r="2"/><circle fill="#96856e" cx="11" cy="17" r="2"/><circle fill="#1d2b15" cx="13" cy="17" r="2"/><circle fill="#b0bdd4" cx="17" cy="5" r="2"/><circle fill="#a4bfd0" cx="3" cy="9" r="2"/><circle fill="#7e6359" cx="3" cy="15" r="2"/><circle fill="#7183a2" cx="15" cy="3" r="2"/><circle fill="#749bbe" cx="9" cy="9" r="2"/><circle fill="#455635" cx="15" cy="11" r="2"/><circle fill="#555844" cx="5" cy="11" r="2"/><circle fill="#97add9" cx="5" cy="3" r="2"/><circle fill="#7b9bb5" cx="11" cy="9" r="2"/><circle fill="#4b89d5" cx="5" cy="5" r="2"/><circle fill="#947a6a" cx="3" cy="13" r="2"/><circle fill="#2f4120" cx="7" cy="11" r="2"/></g></svg>